<mxfile host="app.diagrams.net" modified="2021-11-05T07:02:19.416Z" agent="5.0 (Windows NT 10.0; Win64; x64) AppleWebKit/537.36 (KHTML, like Gecko) Chrome/95.0.4638.54 Safari/537.36" etag="6ZB0cXgFrWhsYGsatt6p" version="15.5.5" type="github">
  <diagram id="MIG7w1ljyxfco51sz7ns" name="第 1 页">
    <mxGraphModel dx="981" dy="526" grid="1" gridSize="10" guides="1" tooltips="1" connect="1" arrows="1" fold="1" page="1" pageScale="1" pageWidth="827" pageHeight="1169" math="0" shadow="0">
      <root>
        <mxCell id="0" />
        <mxCell id="1" parent="0" />
        <mxCell id="KMKdNr-hkiZxXiOl4M0e-4" value="FlowRunner&lt;br&gt;Manager" style="shape=umlLifeline;perimeter=lifelinePerimeter;whiteSpace=wrap;html=1;container=1;collapsible=0;recursiveResize=0;outlineConnect=0;" vertex="1" parent="1">
          <mxGeometry x="40" y="210" width="80" height="430" as="geometry" />
        </mxCell>
        <mxCell id="KMKdNr-hkiZxXiOl4M0e-5" value="" style="html=1;points=[];perimeter=orthogonalPerimeter;" vertex="1" parent="KMKdNr-hkiZxXiOl4M0e-4">
          <mxGeometry x="35" y="60" width="10" height="360" as="geometry" />
        </mxCell>
        <mxCell id="KMKdNr-hkiZxXiOl4M0e-24" value="" style="html=1;points=[];perimeter=orthogonalPerimeter;" vertex="1" parent="1">
          <mxGeometry x="200" y="290" width="10" height="30" as="geometry" />
        </mxCell>
        <mxCell id="KMKdNr-hkiZxXiOl4M0e-25" value="&lt;font style=&quot;font-size: 11px&quot;&gt;创建execID文件夹&lt;/font&gt;" style="html=1;verticalAlign=bottom;endArrow=block;entryX=0;entryY=0;rounded=0;" edge="1" target="KMKdNr-hkiZxXiOl4M0e-24" parent="1">
          <mxGeometry relative="1" as="geometry">
            <mxPoint x="85" y="290" as="sourcePoint" />
          </mxGeometry>
        </mxCell>
        <mxCell id="KMKdNr-hkiZxXiOl4M0e-26" value="return" style="html=1;verticalAlign=bottom;endArrow=open;dashed=1;endSize=8;exitX=0;exitY=0.95;rounded=0;entryX=1.051;entryY=0.135;entryDx=0;entryDy=0;entryPerimeter=0;" edge="1" source="KMKdNr-hkiZxXiOl4M0e-24" parent="1" target="KMKdNr-hkiZxXiOl4M0e-5">
          <mxGeometry relative="1" as="geometry">
            <mxPoint x="90" y="319" as="targetPoint" />
          </mxGeometry>
        </mxCell>
        <mxCell id="KMKdNr-hkiZxXiOl4M0e-27" value="ProjectResource&lt;br&gt;Storage" style="shape=umlLifeline;perimeter=lifelinePerimeter;whiteSpace=wrap;html=1;container=1;collapsible=0;recursiveResize=0;outlineConnect=0;" vertex="1" parent="1">
          <mxGeometry x="259" y="210" width="90" height="430" as="geometry" />
        </mxCell>
        <mxCell id="KMKdNr-hkiZxXiOl4M0e-32" value="" style="html=1;points=[];perimeter=orthogonalPerimeter;fontSize=11;" vertex="1" parent="KMKdNr-hkiZxXiOl4M0e-27">
          <mxGeometry x="40" y="241" width="10" height="80" as="geometry" />
        </mxCell>
        <mxCell id="KMKdNr-hkiZxXiOl4M0e-33" value="下载project resource到project-resource&lt;br&gt;下载share resource到shared-resource" style="html=1;verticalAlign=bottom;endArrow=block;entryX=0;entryY=0;rounded=0;fontSize=11;exitX=1.028;exitY=0.286;exitDx=0;exitDy=0;exitPerimeter=0;" edge="1" target="KMKdNr-hkiZxXiOl4M0e-32" parent="1">
          <mxGeometry relative="1" as="geometry">
            <mxPoint x="85.27999999999997" y="451.22" as="sourcePoint" />
          </mxGeometry>
        </mxCell>
        <mxCell id="KMKdNr-hkiZxXiOl4M0e-34" value="project resource dir(projectid.version)" style="html=1;verticalAlign=bottom;endArrow=open;dashed=1;endSize=8;exitX=0;exitY=0.95;rounded=0;fontSize=11;entryX=0.981;entryY=0.568;entryDx=0;entryDy=0;entryPerimeter=0;" edge="1" source="KMKdNr-hkiZxXiOl4M0e-32" parent="1">
          <mxGeometry relative="1" as="geometry">
            <mxPoint x="84.81000000000006" y="527.36" as="targetPoint" />
          </mxGeometry>
        </mxCell>
        <mxCell id="KMKdNr-hkiZxXiOl4M0e-35" value="HDFS" style="shape=umlLifeline;perimeter=lifelinePerimeter;whiteSpace=wrap;html=1;container=1;collapsible=0;recursiveResize=0;outlineConnect=0;" vertex="1" parent="1">
          <mxGeometry x="471" y="210" width="50" height="430" as="geometry" />
        </mxCell>
        <mxCell id="KMKdNr-hkiZxXiOl4M0e-38" value="" style="html=1;points=[];perimeter=orthogonalPerimeter;fontSize=11;" vertex="1" parent="KMKdNr-hkiZxXiOl4M0e-35">
          <mxGeometry x="20" y="244" width="10" height="60" as="geometry" />
        </mxCell>
        <mxCell id="KMKdNr-hkiZxXiOl4M0e-37" value="Local&lt;br&gt;Storage" style="shape=umlLifeline;perimeter=lifelinePerimeter;whiteSpace=wrap;html=1;container=1;collapsible=0;recursiveResize=0;outlineConnect=0;" vertex="1" parent="1">
          <mxGeometry x="561" y="210" width="50" height="430" as="geometry" />
        </mxCell>
        <mxCell id="KMKdNr-hkiZxXiOl4M0e-41" value="" style="html=1;points=[];perimeter=orthogonalPerimeter;fontSize=11;" vertex="1" parent="KMKdNr-hkiZxXiOl4M0e-37">
          <mxGeometry x="20" y="254" width="10" height="40" as="geometry" />
        </mxCell>
        <mxCell id="KMKdNr-hkiZxXiOl4M0e-44" value="" style="html=1;points=[];perimeter=orthogonalPerimeter;fontSize=11;" vertex="1" parent="KMKdNr-hkiZxXiOl4M0e-37">
          <mxGeometry x="20" y="344" width="10" height="50" as="geometry" />
        </mxCell>
        <mxCell id="KMKdNr-hkiZxXiOl4M0e-40" value="return" style="html=1;verticalAlign=bottom;endArrow=open;dashed=1;endSize=8;exitX=0;exitY=0.95;rounded=0;fontSize=11;entryX=0.99;entryY=0.746;entryDx=0;entryDy=0;entryPerimeter=0;" edge="1" source="KMKdNr-hkiZxXiOl4M0e-38" parent="1" target="KMKdNr-hkiZxXiOl4M0e-32">
          <mxGeometry relative="1" as="geometry">
            <mxPoint x="350" y="511" as="targetPoint" />
          </mxGeometry>
        </mxCell>
        <mxCell id="KMKdNr-hkiZxXiOl4M0e-39" value="从hdfs上" style="html=1;verticalAlign=bottom;endArrow=block;entryX=0;entryY=0;rounded=0;fontSize=11;" edge="1" target="KMKdNr-hkiZxXiOl4M0e-38" parent="1" source="KMKdNr-hkiZxXiOl4M0e-32">
          <mxGeometry relative="1" as="geometry">
            <mxPoint x="340" y="454" as="sourcePoint" />
          </mxGeometry>
        </mxCell>
        <mxCell id="KMKdNr-hkiZxXiOl4M0e-42" value="下载到本地" style="html=1;verticalAlign=bottom;endArrow=block;entryX=0;entryY=0;rounded=0;fontSize=11;exitX=1.167;exitY=0.166;exitDx=0;exitDy=0;exitPerimeter=0;" edge="1" target="KMKdNr-hkiZxXiOl4M0e-41" parent="1" source="KMKdNr-hkiZxXiOl4M0e-38">
          <mxGeometry relative="1" as="geometry">
            <mxPoint x="511" y="454" as="sourcePoint" />
          </mxGeometry>
        </mxCell>
        <mxCell id="KMKdNr-hkiZxXiOl4M0e-43" value="return" style="html=1;verticalAlign=bottom;endArrow=open;dashed=1;endSize=8;exitX=0;exitY=0.95;rounded=0;fontSize=11;entryX=1.028;entryY=0.8;entryDx=0;entryDy=0;entryPerimeter=0;" edge="1" source="KMKdNr-hkiZxXiOl4M0e-41" parent="1" target="KMKdNr-hkiZxXiOl4M0e-38">
          <mxGeometry relative="1" as="geometry">
            <mxPoint x="511" y="530" as="targetPoint" />
          </mxGeometry>
        </mxCell>
        <mxCell id="KMKdNr-hkiZxXiOl4M0e-45" value="将project resource/share resource/project files /scripts建软链接到execID文件夹下" style="html=1;verticalAlign=bottom;endArrow=block;entryX=0;entryY=0;rounded=0;fontSize=11;exitX=1.036;exitY=0.669;exitDx=0;exitDy=0;exitPerimeter=0;" edge="1" target="KMKdNr-hkiZxXiOl4M0e-44" parent="1">
          <mxGeometry relative="1" as="geometry">
            <mxPoint x="85.36000000000001" y="554.63" as="sourcePoint" />
          </mxGeometry>
        </mxCell>
        <mxCell id="KMKdNr-hkiZxXiOl4M0e-46" value="return" style="html=1;verticalAlign=bottom;endArrow=open;dashed=1;endSize=8;exitX=0;exitY=0.95;rounded=0;fontSize=11;entryX=1.056;entryY=0.838;entryDx=0;entryDy=0;entryPerimeter=0;" edge="1" source="KMKdNr-hkiZxXiOl4M0e-44" parent="1">
          <mxGeometry relative="1" as="geometry">
            <mxPoint x="85.56000000000006" y="600.26" as="targetPoint" />
          </mxGeometry>
        </mxCell>
        <mxCell id="KMKdNr-hkiZxXiOl4M0e-47" value="MySql" style="shape=umlLifeline;perimeter=lifelinePerimeter;whiteSpace=wrap;html=1;container=1;collapsible=0;recursiveResize=0;outlineConnect=0;" vertex="1" parent="1">
          <mxGeometry x="389" y="210" width="50" height="430" as="geometry" />
        </mxCell>
        <mxCell id="KMKdNr-hkiZxXiOl4M0e-49" value="" style="html=1;points=[];perimeter=orthogonalPerimeter;fontSize=11;" vertex="1" parent="KMKdNr-hkiZxXiOl4M0e-47">
          <mxGeometry x="20" y="140" width="10" height="60" as="geometry" />
        </mxCell>
        <mxCell id="KMKdNr-hkiZxXiOl4M0e-50" value="下载project file到projectdir（/projects）" style="html=1;verticalAlign=bottom;endArrow=block;entryX=0;entryY=0;rounded=0;fontSize=11;exitX=0.971;exitY=0.219;exitDx=0;exitDy=0;exitPerimeter=0;" edge="1" target="KMKdNr-hkiZxXiOl4M0e-49" parent="1" source="KMKdNr-hkiZxXiOl4M0e-5">
          <mxGeometry relative="1" as="geometry">
            <mxPoint x="339" y="350" as="sourcePoint" />
          </mxGeometry>
        </mxCell>
        <mxCell id="KMKdNr-hkiZxXiOl4M0e-51" value="返回project file" style="html=1;verticalAlign=bottom;endArrow=open;dashed=1;endSize=8;exitX=0;exitY=0.95;rounded=0;fontSize=11;entryX=1.143;entryY=0.372;entryDx=0;entryDy=0;entryPerimeter=0;" edge="1" source="KMKdNr-hkiZxXiOl4M0e-49" parent="1" target="KMKdNr-hkiZxXiOl4M0e-5">
          <mxGeometry relative="1" as="geometry">
            <mxPoint x="339" y="426" as="targetPoint" />
          </mxGeometry>
        </mxCell>
      </root>
    </mxGraphModel>
  </diagram>
</mxfile>
